Coordinates
version=1
nRows=4
nColumns=60
inDegrees=yes

Units are S.I. units (second, meters, Newtons, ...)
If the header above contains a line with 'inDegrees', this indicates whether rotational values are in degrees (yes) or radians (no).

endheader
time	pelvis_tilt	pelvis_list	pelvis_rotation	pelvis_tx	pelvis_ty	pelvis_tz	hip_flexion_r	hip_adduction_r	hip_rotation_r	knee_angle_r_beta	knee_angle_r	ankle_angle_r	subtalar_angle_r	mtp_angle_r	hip_flexion_l	hip_adduction_l	hip_rotation_l	knee_angle_l_beta	knee_angle_l	ankle_angle_l	subtalar_angle_l	mtp_angle_l	L5_S1_Flex_Ext	L5_S1_Lat_Bending	L5_S1_axial_rotation	L4_L5_Flex_Ext	L4_L5_Lat_Bending	L4_L5_axial_rotation	L3_L4_Flex_Ext	L3_L4_Lat_Bending	L3_L4_axial_rotation	L2_L3_Flex_Ext	L2_L3_Lat_Bending	L2_L3_axial_rotation	L1_L2_Flex_Ext	L1_L2_Lat_Bending	L1_L2_axial_rotation	L1_T12_Flex_Ext	L1_T12_Lat_Bending	L1_T12_axial_rotation	Abs_r3	Abs_r2	Abs_r1	Abs_t1	Abs_t2	arm_flex_r	arm_add_r	arm_rot_r	elbow_flex_r	pro_sup_r	wrist_flex_r	wrist_dev_r	arm_flex_l	arm_add_l	arm_rot_l	elbow_flex_l	pro_sup_l	wrist_flex_l	wrist_dev_l
      7.02000000	      0.79912556	     -1.57991388	     93.94491178	      0.40439902	      0.93061876	      0.32322934	     15.02452371	     -3.93882447	     -0.18975412	      0.29008345	    -16.62055717	      4.74992025	      0.00000000	      0.00000000	     14.41214796	     -5.66983774	      2.48658158	      0.21741303	    -12.45684901	      3.91079435	      0.00000000	      0.00000000	     -6.94015226	      0.24394303	     -0.43055308	    -12.88855676	      0.32444423	     -0.45746265	    -11.40197614	      0.59312308	     -0.45746265	     -7.93190001	      0.59312308	     -0.37673394	     -6.44462539	      0.49744862	     -0.34982438	     -3.96560300	      0.37786775	     -0.32291481	    -49.57281356	      2.75953232	     -2.39460706	      0.00000000	      0.00000000	     93.67410305	    -15.73427094	     32.03189355	     41.65167437	     56.01596997	    -17.44102437	     63.60548631	     98.82104943	    -16.44014535	     47.00814919	     36.01370534	     41.61027989	    -14.89622431	     58.06001637
      7.03000000	      0.83268345	     -1.72185555	     93.95732231	      0.40461516	      0.93026513	      0.32555949	     15.29315024	     -3.90878182	     -0.21902062	      0.28854067	    -16.53216241	      4.74097477	      0.00000000	      0.00000000	     14.66247038	     -5.69657375	      2.45094729	      0.21533375	    -12.33771511	      3.90139417	      0.00000000	      0.00000000	     -6.96076746	      0.24091991	     -0.43648722	    -12.92684125	      0.32042348	     -0.46376767	    -11.43584486	      0.58577268	     -0.46376767	     -7.95546113	      0.58577268	     -0.38192632	     -6.46376866	      0.49128389	     -0.35464587	     -3.97738253	      0.37318494	     -0.32736542	    -49.72006590	      2.72533424	     -2.42761099	      0.00000000	      0.00000000	     94.10763816	    -15.70460417	     31.98139012	     41.66233747	     56.07195073	    -17.45394112	     63.58161605	     99.25895077	    -16.45482933	     46.95823329	     36.01786817	     41.65749225	    -14.87382074	     58.03354225
      7.04000000	      0.88828779	     -2.00483043	     93.95268122	      0.40485987	      0.92967535	      0.32811878	     15.78097896	     -3.84959149	     -0.06248568	      0.28843190	    -16.52593076	      4.31373454	      0.00000000	      0.00000000	     15.03243463	     -5.73851631	      2.60971145	      0.21114171	    -12.09752879	      3.42410713	      0.00000000	      0.00000000	     -6.94963678	      0.23958652	     -0.46817046	    -12.90617046	      0.31865007	     -0.49743111	    -11.41755826	      0.58253067	     -0.49743111	     -7.94273987	      0.58253067	     -0.40964915	     -6.45343271	      0.48856483	     -0.38038850	     -3.97102245	      0.37111952	     -0.35112784	    -49.64056053	      2.71025065	     -2.60382363	      0.00000000	      0.00000000	     94.78230685	    -15.21336308	     32.04736829	     40.95316342	     56.11973948	    -17.28153441	     63.88162285	     99.74172562	    -16.59247689	     46.98400932	     35.77201040	     41.58866704	    -14.65842410	     58.48736674
      7.05000000	      0.95406206	     -2.19201298	     93.94488475	      0.40511626	      0.92924350	      0.33040014	     16.10344556	     -3.78641171	     -0.06937817	      0.28673276	    -16.42857678	      4.15557651	      0.00000000	      0.00000000	     15.30140719	     -5.80502755	      2.60899450	      0.20788147	    -11.91073062	      3.26092031	      0.00000000	      0.00000000	     -6.94502297	      0.23534664	     -0.48771078	    -12.89760217	      0.31301103	     -0.51819271	    -11.40997824	      0.57222182	     -0.51819271	     -7.93746676	      0.57222182	     -0.42674693	     -6.44914833	      0.47991887	     -0.39626501	     -3.96838613	      0.36455195	     -0.36578309	    -49.60760460	      2.66228827	     -2.71250106	      0.00000000	      0.00000000	     95.24807610	    -14.92577057	     32.06889670	     40.54820539	     56.09702829	    -17.17830060	     63.93108113	    100.13459185	    -16.72040136	     47.02107591	     35.72957977	     41.58592639	    -14.59032928	     58.71641745
